<svg width="24" height="24" viewBox="0 0 24 24" fill="none" xmlns="http://www.w3.org/2000/svg">
<path d="M20.25 3.375H3.75C3.25272 3.375 2.77581 3.57254 2.42417 3.92417C2.07254 4.27581 1.875 4.75272 1.875 5.25V18.75C1.875 19.2473 2.07254 19.7242 2.42417 20.0758C2.77581 20.4275 3.25272 20.625 3.75 20.625H20.25C20.7473 20.625 21.2242 20.4275 21.5758 20.0758C21.9275 19.7242 22.125 19.2473 22.125 18.75V5.25C22.125 4.75272 21.9275 4.27581 21.5758 3.92417C21.2242 3.57254 20.7473 3.375 20.25 3.375ZM19.875 5.625V7.125H4.125V5.625H19.875ZM4.125 18.375V9.375H19.875V18.375H4.125ZM16.875 11.625C16.875 12.9179 16.3614 14.1579 15.4471 15.0721C14.5329 15.9864 13.2929 16.5 12 16.5C10.7071 16.5 9.46709 15.9864 8.55285 15.0721C7.63861 14.1579 7.125 12.9179 7.125 11.625C7.125 11.3266 7.24353 11.0405 7.4545 10.8295C7.66548 10.6185 7.95163 10.5 8.25 10.5C8.54837 10.5 8.83452 10.6185 9.0455 10.8295C9.25647 11.0405 9.375 11.3266 9.375 11.625C9.375 12.3212 9.65156 12.9889 10.1438 13.4812C10.6361 13.9734 11.3038 14.25 12 14.25C12.6962 14.25 13.3639 13.9734 13.8562 13.4812C14.3484 12.9889 14.625 12.3212 14.625 11.625C14.625 11.3266 14.7435 11.0405 14.9545 10.8295C15.1655 10.6185 15.4516 10.5 15.75 10.5C16.0484 10.5 16.3345 10.6185 16.5455 10.8295C16.7565 11.0405 16.875 11.3266 16.875 11.625Z" fill="black"/>
</svg>
